# xmcd
# 
# Track frame offsets:
#     150
#     12456
#     38860
#     62672
#     76849
#     100739
#     123381
#     144764
#     163184
#     183742
#     209729
#     238903
# 
# Disc length: 3461
# 
# Revision: 0
# Processed by: cddbd v1.5.2PL0 Copyright (c) Steve Scherf et al.
# Submitted via: BonkEnc v1.0.6
# 
DISCID=a70d830c
DTITLE=Dixie Chicks - Top of the World
DYEAR=0
DGENRE=Country
TTITLE0=11-Lil' Jack slade
TTITLE1=12-A home
TTITLE2=13-Truth No. 2
TTITLE3=14-If I fall you're going down
TTITLE4=15-Mississippi
TTITLE5=16-Cowboy take me away
TTITLE6=17-Godspeed (Sweet dreams)
TTITLE7=18-Landslide
TTITLE8=19-Ready to run
TTITLE9=20-Wide open spaces
TTITLE10=21-Top of the world
TTITLE11=22-Sin Wagon
EXTD=
EXTT0=
EXTT1=
EXTT2=
EXTT3=
EXTT4=
EXTT5=
EXTT6=
EXTT7=
EXTT8=
EXTT9=
EXTT10=
EXTT11=
PLAYORDER=
